<?xml version="1.0" encoding="UTF-8"?>
<svg xmlns="http://www.w3.org/2000/svg" width="960" height="560" viewBox="0 0 960 560">
  <rect width="100%" height="100%" fill="#ffffff"/>
  <text x="480" y="30" text-anchor="middle" font-size="22" font-family="Arial, sans-serif" font-weight="700" fill="#0f172a">Estimated Dictionary Memory</text>
  <g font-family="Arial, sans-serif">
    <line x1="86" y1="54" x2="86" y2="438" stroke="#334155"/>
    <line x1="86" y1="438" x2="932" y2="438" stroke="#334155"/>
    
        <line x1="80" y1="438" x2="86" y2="438" stroke="#334155"/>
        <line x1="86" y1="438" x2="932" y2="438" stroke="#e2e8f0"/>
        <text x="74" y="442" text-anchor="end" font-size="12" fill="#334155">0</text>
        <line x1="80" y1="361.2" x2="86" y2="361.2" stroke="#334155"/>
        <line x1="86" y1="361.2" x2="932" y2="361.2" stroke="#e2e8f0"/>
        <text x="74" y="365.2" text-anchor="end" font-size="12" fill="#334155">1.01</text>
        <line x1="80" y1="284.4" x2="86" y2="284.4" stroke="#334155"/>
        <line x1="86" y1="284.4" x2="932" y2="284.4" stroke="#e2e8f0"/>
        <text x="74" y="288.4" text-anchor="end" font-size="12" fill="#334155">2.03</text>
        <line x1="80" y1="207.60000000000002" x2="86" y2="207.60000000000002" stroke="#334155"/>
        <line x1="86" y1="207.60000000000002" x2="932" y2="207.60000000000002" stroke="#e2e8f0"/>
        <text x="74" y="211.60000000000002" text-anchor="end" font-size="12" fill="#334155">3.04</text>
        <line x1="80" y1="130.8" x2="86" y2="130.8" stroke="#334155"/>
        <line x1="86" y1="130.8" x2="932" y2="130.8" stroke="#e2e8f0"/>
        <text x="74" y="134.8" text-anchor="end" font-size="12" fill="#334155">4.06</text>
        <line x1="80" y1="54" x2="86" y2="54" stroke="#334155"/>
        <line x1="86" y1="54" x2="932" y2="54" stroke="#e2e8f0"/>
        <text x="74" y="58" text-anchor="end" font-size="12" fill="#334155">5.07</text>
    
        <rect x="102" y="383.5750886498578" width="122.33333333333333" height="54.424911350142224" fill="#2563eb"/>
        <text x="163.16666666666666" y="375.5750886498578" text-anchor="middle" font-size="12" fill="#0f172a">0.72</text>
        <text transform="translate(163.16666666666666 456) rotate(35)" text-anchor="start" font-size="12" fill="#334155">Linear List</text>
        <rect x="240.33333333333331" y="262.2704573401216" width="122.33333333333333" height="175.7295426598784" fill="#dc2626"/>
        <text x="301.5" y="254.2704573401216" text-anchor="middle" font-size="12" fill="#0f172a">2.32</text>
        <text transform="translate(301.5 456) rotate(35)" text-anchor="start" font-size="12" fill="#334155">Red-Black Tree</text>
        <rect x="378.66666666666663" y="95.14285714285717" width="122.33333333333333" height="342.85714285714283" fill="#059669"/>
        <text x="439.8333333333333" y="87.14285714285717" text-anchor="middle" font-size="12" fill="#0f172a">4.53</text>
        <text transform="translate(439.8333333333333 456) rotate(35)" text-anchor="start" font-size="12" fill="#334155">Ordinary Trie</text>
        <rect x="517" y="296.9289234286176" width="122.33333333333333" height="141.07107657138238" fill="#7c3aed"/>
        <text x="578.1666666666666" y="288.9289234286176" text-anchor="middle" font-size="12" fill="#0f172a">1.86</text>
        <text transform="translate(578.1666666666666 456) rotate(35)" text-anchor="start" font-size="12" fill="#334155">Hash Map</text>
        <rect x="655.3333333333333" y="171.33602899180687" width="122.33333333333333" height="266.66397100819313" fill="#ea580c"/>
        <text x="716.4999999999999" y="163.33602899180687" text-anchor="middle" font-size="12" fill="#0f172a">3.52</text>
        <text transform="translate(716.4999999999999 456) rotate(35)" text-anchor="start" font-size="12" fill="#334155">Balanced Ternary Trie</text>
        <rect x="793.6666666666665" y="334.4638977921835" width="122.33333333333333" height="103.5361022078165" fill="#0891b2"/>
        <text x="854.8333333333331" y="326.4638977921835" text-anchor="middle" font-size="12" fill="#0f172a">1.37</text>
        <text transform="translate(854.8333333333331 456) rotate(35)" text-anchor="start" font-size="12" fill="#334155">Double-Array Trie</text>
    <text transform="translate(24 246) rotate(-90)" text-anchor="middle" font-size="14" fill="#0f172a">Estimated memory (MB)</text>
  </g>
</svg>