<?xml version="1.0" encoding="UTF-8"?>
<svg xmlns="http://www.w3.org/2000/svg" width="960" height="560" viewBox="0 0 960 560">
  <rect width="100%" height="100%" fill="#ffffff"/>
  <text x="480" y="30" text-anchor="middle" font-size="22" font-family="Arial, sans-serif" font-weight="700" fill="#0f172a">Dictionary Build Time</text>
  <g font-family="Arial, sans-serif">
    <line x1="86" y1="54" x2="86" y2="438" stroke="#334155"/>
    <line x1="86" y1="438" x2="932" y2="438" stroke="#334155"/>
    
        <line x1="80" y1="438" x2="86" y2="438" stroke="#334155"/>
        <line x1="86" y1="438" x2="932" y2="438" stroke="#e2e8f0"/>
        <text x="74" y="442" text-anchor="end" font-size="12" fill="#334155">0</text>
        <line x1="80" y1="361.2" x2="86" y2="361.2" stroke="#334155"/>
        <line x1="86" y1="361.2" x2="932" y2="361.2" stroke="#e2e8f0"/>
        <text x="74" y="365.2" text-anchor="end" font-size="12" fill="#334155">148</text>
        <line x1="80" y1="284.4" x2="86" y2="284.4" stroke="#334155"/>
        <line x1="86" y1="284.4" x2="932" y2="284.4" stroke="#e2e8f0"/>
        <text x="74" y="288.4" text-anchor="end" font-size="12" fill="#334155">295</text>
        <line x1="80" y1="207.60000000000002" x2="86" y2="207.60000000000002" stroke="#334155"/>
        <line x1="86" y1="207.60000000000002" x2="932" y2="207.60000000000002" stroke="#e2e8f0"/>
        <text x="74" y="211.60000000000002" text-anchor="end" font-size="12" fill="#334155">443</text>
        <line x1="80" y1="130.8" x2="86" y2="130.8" stroke="#334155"/>
        <line x1="86" y1="130.8" x2="932" y2="130.8" stroke="#e2e8f0"/>
        <text x="74" y="134.8" text-anchor="end" font-size="12" fill="#334155">591</text>
        <line x1="80" y1="54" x2="86" y2="54" stroke="#334155"/>
        <line x1="86" y1="54" x2="932" y2="54" stroke="#e2e8f0"/>
        <text x="74" y="58" text-anchor="end" font-size="12" fill="#334155">738</text>
    
        <rect x="102" y="437.5026268457173" width="122.33333333333333" height="0.497373154282684" fill="#2563eb"/>
        <text x="163.16666666666666" y="429.5026268457173" text-anchor="middle" font-size="12" fill="#0f172a">0.96</text>
        <text transform="translate(163.16666666666666 456) rotate(35)" text-anchor="start" font-size="12" fill="#334155">Linear List</text>
        <rect x="240.33333333333331" y="388.18964703291545" width="122.33333333333333" height="49.810352967084555" fill="#dc2626"/>
        <text x="301.5" y="380.18964703291545" text-anchor="middle" font-size="12" fill="#0f172a">96</text>
        <text transform="translate(301.5 456) rotate(35)" text-anchor="start" font-size="12" fill="#334155">Red-Black Tree</text>
        <rect x="378.66666666666663" y="374.88438194020233" width="122.33333333333333" height="63.11561805979767" fill="#059669"/>
        <text x="439.8333333333333" y="366.88438194020233" text-anchor="middle" font-size="12" fill="#0f172a">121</text>
        <text transform="translate(439.8333333333333 456) rotate(35)" text-anchor="start" font-size="12" fill="#334155">Ordinary Trie</text>
        <rect x="517" y="427.1794678161" width="122.33333333333333" height="10.820532183900013" fill="#7c3aed"/>
        <text x="578.1666666666666" y="419.1794678161" text-anchor="middle" font-size="12" fill="#0f172a">21</text>
        <text transform="translate(578.1666666666666 456) rotate(35)" text-anchor="start" font-size="12" fill="#334155">Hash Map</text>
        <rect x="655.3333333333333" y="374.07940838206326" width="122.33333333333333" height="63.920591617936736" fill="#ea580c"/>
        <text x="716.4999999999999" y="366.07940838206326" text-anchor="middle" font-size="12" fill="#0f172a">123</text>
        <text transform="translate(716.4999999999999 456) rotate(35)" text-anchor="start" font-size="12" fill="#334155">Balanced Ternary Trie</text>
        <rect x="793.6666666666665" y="95.14285714285717" width="122.33333333333333" height="342.85714285714283" fill="#0891b2"/>
        <text x="854.8333333333331" y="87.14285714285717" text-anchor="middle" font-size="12" fill="#0f172a">659</text>
        <text transform="translate(854.8333333333331 456) rotate(35)" text-anchor="start" font-size="12" fill="#334155">Double-Array Trie</text>
    <text transform="translate(24 246) rotate(-90)" text-anchor="middle" font-size="14" fill="#0f172a">Build time (ms)</text>
  </g>
</svg>