<?xml version="1.0" encoding="UTF-8"?>
<svg xmlns="http://www.w3.org/2000/svg" width="960" height="560" viewBox="0 0 960 560">
  <rect width="100%" height="100%" fill="#ffffff"/>
  <text x="480" y="30" text-anchor="middle" font-size="22" font-family="Arial, sans-serif" font-weight="700" fill="#0f172a">Spell Checking RT vs Text Length</text>
  <g font-family="Arial, sans-serif">
    <line x1="86" y1="54" x2="86" y2="466" stroke="#334155"/>
    <line x1="86" y1="466" x2="928" y2="466" stroke="#334155"/>
    
        <line x1="86" y1="466" x2="86" y2="472" stroke="#334155"/>
        <text x="86" y="490" text-anchor="middle" font-size="12" fill="#334155">5k</text>
        <line x1="130.26307645343635" y1="466" x2="130.26307645343635" y2="472" stroke="#334155"/>
        <text x="130.26307645343635" y="490" text-anchor="middle" font-size="12" fill="#334155">10k</text>
        <line x1="218.860135369846" y1="466" x2="218.860135369846" y2="472" stroke="#334155"/>
        <text x="218.860135369846" y="490" text-anchor="middle" font-size="12" fill="#334155">20k</text>
        <line x1="484.7576711333803" y1="466" x2="484.7576711333803" y2="472" stroke="#334155"/>
        <text x="484.7576711333803" y="490" text-anchor="middle" font-size="12" fill="#334155">50k</text>
        <line x1="928" y1="466" x2="928" y2="472" stroke="#334155"/>
        <text x="928" y="490" text-anchor="middle" font-size="12" fill="#334155">100k</text>
    
        <line x1="80" y1="466" x2="86" y2="466" stroke="#334155"/>
        <line x1="86" y1="466" x2="928" y2="466" stroke="#e2e8f0"/>
        <text x="74" y="470" text-anchor="end" font-size="12" fill="#334155">0</text>
        <line x1="80" y1="383.6" x2="86" y2="383.6" stroke="#334155"/>
        <line x1="86" y1="383.6" x2="928" y2="383.6" stroke="#e2e8f0"/>
        <text x="74" y="387.6" text-anchor="end" font-size="12" fill="#334155">752</text>
        <line x1="80" y1="301.2" x2="86" y2="301.2" stroke="#334155"/>
        <line x1="86" y1="301.2" x2="928" y2="301.2" stroke="#e2e8f0"/>
        <text x="74" y="305.2" text-anchor="end" font-size="12" fill="#334155">2k</text>
        <line x1="80" y1="218.79999999999995" x2="86" y2="218.79999999999995" stroke="#334155"/>
        <line x1="86" y1="218.79999999999995" x2="928" y2="218.79999999999995" stroke="#e2e8f0"/>
        <text x="74" y="222.79999999999995" text-anchor="end" font-size="12" fill="#334155">2k</text>
        <line x1="80" y1="136.39999999999998" x2="86" y2="136.39999999999998" stroke="#334155"/>
        <line x1="86" y1="136.39999999999998" x2="928" y2="136.39999999999998" stroke="#e2e8f0"/>
        <text x="74" y="140.39999999999998" text-anchor="end" font-size="12" fill="#334155">3k</text>
        <line x1="80" y1="54" x2="86" y2="54" stroke="#334155"/>
        <line x1="86" y1="54" x2="928" y2="54" stroke="#e2e8f0"/>
        <text x="74" y="58" text-anchor="end" font-size="12" fill="#334155">4k</text>
    <polyline fill="none" stroke="#2563eb" stroke-width="2.4" points="86.00,462.22 130.26,454.83 218.86,448.75 484.76,404.46 928.00,98.14"/><circle cx="86.00" cy="462.22" r="4" fill="#2563eb"/><circle cx="130.26" cy="454.83" r="4" fill="#2563eb"/><circle cx="218.86" cy="448.75" r="4" fill="#2563eb"/><circle cx="484.76" cy="404.46" r="4" fill="#2563eb"/><circle cx="928.00" cy="98.14" r="4" fill="#2563eb"/><polyline fill="none" stroke="#dc2626" stroke-width="2.4" points="86.00,465.81 130.26,465.83 218.86,465.70 484.76,465.09 928.00,463.91"/><circle cx="86.00" cy="465.81" r="4" fill="#dc2626"/><circle cx="130.26" cy="465.83" r="4" fill="#dc2626"/><circle cx="218.86" cy="465.70" r="4" fill="#dc2626"/><circle cx="484.76" cy="465.09" r="4" fill="#dc2626"/><circle cx="928.00" cy="463.91" r="4" fill="#dc2626"/><polyline fill="none" stroke="#059669" stroke-width="2.4" points="86.00,465.59 130.26,465.66 218.86,465.55 484.76,464.39 928.00,463.03"/><circle cx="86.00" cy="465.59" r="4" fill="#059669"/><circle cx="130.26" cy="465.66" r="4" fill="#059669"/><circle cx="218.86" cy="465.55" r="4" fill="#059669"/><circle cx="484.76" cy="464.39" r="4" fill="#059669"/><circle cx="928.00" cy="463.03" r="4" fill="#059669"/><polyline fill="none" stroke="#7c3aed" stroke-width="2.4" points="86.00,465.97 130.26,465.88 218.86,465.75 484.76,465.46 928.00,465.48"/><circle cx="86.00" cy="465.97" r="4" fill="#7c3aed"/><circle cx="130.26" cy="465.88" r="4" fill="#7c3aed"/><circle cx="218.86" cy="465.75" r="4" fill="#7c3aed"/><circle cx="484.76" cy="465.46" r="4" fill="#7c3aed"/><circle cx="928.00" cy="465.48" r="4" fill="#7c3aed"/><polyline fill="none" stroke="#ea580c" stroke-width="2.4" points="86.00,465.66 130.26,465.83 218.86,465.52 484.76,465.21 928.00,463.62"/><circle cx="86.00" cy="465.66" r="4" fill="#ea580c"/><circle cx="130.26" cy="465.83" r="4" fill="#ea580c"/><circle cx="218.86" cy="465.52" r="4" fill="#ea580c"/><circle cx="484.76" cy="465.21" r="4" fill="#ea580c"/><circle cx="928.00" cy="463.62" r="4" fill="#ea580c"/><polyline fill="none" stroke="#0891b2" stroke-width="2.4" points="86.00,465.69 130.26,465.68 218.86,465.82 484.76,465.48 928.00,464.83"/><circle cx="86.00" cy="465.69" r="4" fill="#0891b2"/><circle cx="130.26" cy="465.68" r="4" fill="#0891b2"/><circle cx="218.86" cy="465.82" r="4" fill="#0891b2"/><circle cx="484.76" cy="465.48" r="4" fill="#0891b2"/><circle cx="928.00" cy="464.83" r="4" fill="#0891b2"/>
    <text x="507" y="542" text-anchor="middle" font-size="14" fill="#0f172a">Text length in characters</text>
    <text transform="translate(24 260) rotate(-90)" text-anchor="middle" font-size="14" fill="#0f172a">Median lookup time (ms)</text>
    
        <rect x="86" y="502" width="12" height="12" fill="#2563eb"/>
        <text x="104" y="512" font-size="13" fill="#0f172a">Linear List</text>
        <rect x="356" y="502" width="12" height="12" fill="#dc2626"/>
        <text x="374" y="512" font-size="13" fill="#0f172a">Red-Black Tree</text>
        <rect x="626" y="502" width="12" height="12" fill="#059669"/>
        <text x="644" y="512" font-size="13" fill="#0f172a">Ordinary Trie</text>
        <rect x="86" y="524" width="12" height="12" fill="#7c3aed"/>
        <text x="104" y="534" font-size="13" fill="#0f172a">Hash Map</text>
        <rect x="356" y="524" width="12" height="12" fill="#ea580c"/>
        <text x="374" y="534" font-size="13" fill="#0f172a">Balanced Ternary Trie</text>
        <rect x="626" y="524" width="12" height="12" fill="#0891b2"/>
        <text x="644" y="534" font-size="13" fill="#0f172a">Double-Array Trie</text>
  </g>
</svg>