<?xml version="1.0" encoding="UTF-8"?>
<svg xmlns="http://www.w3.org/2000/svg" width="960" height="560" viewBox="0 0 960 560">
  <rect width="100%" height="100%" fill="#ffffff"/>
  <text x="480" y="30" text-anchor="middle" font-size="22" font-family="Arial, sans-serif" font-weight="700" fill="#0f172a">Hash Table Search Time vs Load Factor</text>
  <g font-family="Arial, sans-serif">
    <line x1="86" y1="54" x2="86" y2="466" stroke="#334155"/>
    <line x1="86" y1="466" x2="928" y2="466" stroke="#334155"/>
    
        <line x1="86" y1="466" x2="86" y2="472" stroke="#334155"/>
        <text x="86" y="490" text-anchor="middle" font-size="12" fill="#334155">0.10</text>
        <line x1="212.3" y1="466" x2="212.3" y2="472" stroke="#334155"/>
        <text x="212.3" y="490" text-anchor="middle" font-size="12" fill="#334155">0.25</text>
        <line x1="422.8" y1="466" x2="422.8" y2="472" stroke="#334155"/>
        <text x="422.8" y="490" text-anchor="middle" font-size="12" fill="#334155">0.50</text>
        <line x1="591.2" y1="466" x2="591.2" y2="472" stroke="#334155"/>
        <text x="591.2" y="490" text-anchor="middle" font-size="12" fill="#334155">0.70</text>
        <line x1="675.4000000000001" y1="466" x2="675.4000000000001" y2="472" stroke="#334155"/>
        <text x="675.4000000000001" y="490" text-anchor="middle" font-size="12" fill="#334155">0.80</text>
        <line x1="759.6" y1="466" x2="759.6" y2="472" stroke="#334155"/>
        <text x="759.6" y="490" text-anchor="middle" font-size="12" fill="#334155">0.90</text>
    
        <line x1="80" y1="466" x2="86" y2="466" stroke="#334155"/>
        <line x1="86" y1="466" x2="928" y2="466" stroke="#e2e8f0"/>
        <text x="74" y="470" text-anchor="end" font-size="12" fill="#334155">0</text>
        <line x1="80" y1="383.6" x2="86" y2="383.6" stroke="#334155"/>
        <line x1="86" y1="383.6" x2="928" y2="383.6" stroke="#e2e8f0"/>
        <text x="74" y="387.6" text-anchor="end" font-size="12" fill="#334155">1.73</text>
        <line x1="80" y1="301.20000000000005" x2="86" y2="301.20000000000005" stroke="#334155"/>
        <line x1="86" y1="301.20000000000005" x2="928" y2="301.20000000000005" stroke="#e2e8f0"/>
        <text x="74" y="305.20000000000005" text-anchor="end" font-size="12" fill="#334155">3.46</text>
        <line x1="80" y1="218.8" x2="86" y2="218.8" stroke="#334155"/>
        <line x1="86" y1="218.8" x2="928" y2="218.8" stroke="#e2e8f0"/>
        <text x="74" y="222.8" text-anchor="end" font-size="12" fill="#334155">5.20</text>
        <line x1="80" y1="136.40000000000003" x2="86" y2="136.40000000000003" stroke="#334155"/>
        <line x1="86" y1="136.40000000000003" x2="928" y2="136.40000000000003" stroke="#e2e8f0"/>
        <text x="74" y="140.40000000000003" text-anchor="end" font-size="12" fill="#334155">6.93</text>
        <line x1="80" y1="54" x2="86" y2="54" stroke="#334155"/>
        <line x1="86" y1="54" x2="928" y2="54" stroke="#e2e8f0"/>
        <text x="74" y="58" text-anchor="end" font-size="12" fill="#334155">8.66</text>
    <polyline fill="none" stroke="#2563eb" stroke-width="2.4" points="86.00,357.55 212.30,429.14 422.80,412.69 591.20,411.62 675.40,407.67 759.60,417.57"/><circle cx="86.00" cy="357.55" r="4" fill="#2563eb"/><circle cx="212.30" cy="429.14" r="4" fill="#2563eb"/><circle cx="422.80" cy="412.69" r="4" fill="#2563eb"/><circle cx="591.20" cy="411.62" r="4" fill="#2563eb"/><circle cx="675.40" cy="407.67" r="4" fill="#2563eb"/><circle cx="759.60" cy="417.57" r="4" fill="#2563eb"/><polyline fill="none" stroke="#dc2626" stroke-width="2.4" points="86.00,384.39 212.30,430.85 422.80,402.22 591.20,373.91 675.40,337.67 759.60,98.14"/><circle cx="86.00" cy="384.39" r="4" fill="#dc2626"/><circle cx="212.30" cy="430.85" r="4" fill="#dc2626"/><circle cx="422.80" cy="402.22" r="4" fill="#dc2626"/><circle cx="591.20" cy="373.91" r="4" fill="#dc2626"/><circle cx="675.40" cy="337.67" r="4" fill="#dc2626"/><circle cx="759.60" cy="98.14" r="4" fill="#dc2626"/><polyline fill="none" stroke="#059669" stroke-width="2.4" points="86.00,375.36 212.30,378.34 422.80,383.21 591.20,365.48 675.40,369.09 759.60,313.05"/><circle cx="86.00" cy="375.36" r="4" fill="#059669"/><circle cx="212.30" cy="378.34" r="4" fill="#059669"/><circle cx="422.80" cy="383.21" r="4" fill="#059669"/><circle cx="591.20" cy="365.48" r="4" fill="#059669"/><circle cx="675.40" cy="369.09" r="4" fill="#059669"/><circle cx="759.60" cy="313.05" r="4" fill="#059669"/>
    <text x="507" y="542" text-anchor="middle" font-size="14" fill="#0f172a">Load factor</text>
    <text transform="translate(24 260) rotate(-90)" text-anchor="middle" font-size="14" fill="#0f172a">Median search time (microseconds/op)</text>
    
        <rect x="86" y="502" width="12" height="12" fill="#2563eb"/>
        <text x="104" y="512" font-size="13" fill="#0f172a">Separate Chaining</text>
        <rect x="356" y="502" width="12" height="12" fill="#dc2626"/>
        <text x="374" y="512" font-size="13" fill="#0f172a">Linear Probing</text>
        <rect x="626" y="502" width="12" height="12" fill="#059669"/>
        <text x="644" y="512" font-size="13" fill="#0f172a">Double Hashing</text>
  </g>
</svg>